<svg xmlns="http://www.w3.org/2000/svg" viewBox="0 0 212.45 68.21"><defs><style>.cls-1{fill:#fff;}</style></defs><title>Fichier 1</title><g id="Calque_2" data-name="Calque 2"><g id="Calque_1-2" data-name="Calque 1"><path class="cls-1" d="M56.92,67,45.34,21.68,33.86,67H18.91L0,1H15.74L27.32,48.71,39.9,1h11L63.36,48.71,74.94,1H90.68L71.87,67Z"/><path class="cls-1" d="M131,67c-1.39-1.29-3.07-3-5-5a29.3,29.3,0,0,1-18,6.14c-12.08,0-21.78-6.34-21.78-19.11,0-10,6.63-15.25,14.26-19.11-2.67-4.85-4.36-9.7-4.36-14.16C96.13,6.93,104,0,114.94,0c9.31,0,17.33,5,17.33,14,0,10.1-8,14.35-16.14,18.12,2,2.67,4,5.15,5.64,7.13q2.82,3.56,5.64,6.83a55.09,55.09,0,0,0,6-12.87l10,4.65a78.31,78.31,0,0,1-9.21,15.84C138.2,58,142.46,62.37,147,67ZM119.3,54.94c-3-3.27-5.74-6.43-7.33-8.41-2.18-2.67-4.55-5.64-6.63-8.71-3.46,2.48-5.74,5.54-5.74,10.1a10,10,0,0,0,10.2,10.4A16.34,16.34,0,0,0,119.3,54.94ZM111.47,25c5.54-2.67,9.9-5.54,9.9-10.4,0-3.46-2.57-5.54-5.84-5.54a6.79,6.79,0,0,0-6.93,7A19.08,19.08,0,0,0,111.47,25Z"/><path class="cls-1" d="M144.94,57.72l7.72-11a29,29,0,0,0,21,9c7.82,0,11.48-3.46,11.48-7.33,0-11.48-38-3.46-38-28.31,0-11,9.5-20.1,25-20.1,10.49,0,19.21,3.17,25.74,9.21L190.08,19.7a28.36,28.36,0,0,0-19.21-7.23c-5.94,0-9.31,2.57-9.31,6.53,0,10.4,37.92,3.37,37.92,28,0,12.08-8.71,21.19-26.43,21.19C160.28,68.21,151.17,64,144.94,57.72Z"/><path class="cls-1" d="M200.79,62a5.83,5.83,0,1,1,5.83,5.83A5.9,5.9,0,0,1,200.79,62Z"/></g></g></svg>